<?xml version="1.0" encoding="UTF-8"?>
<svg version="1.1" xmlns="http://www.w3.org/2000/svg" width="64" height="65">
<path d="M0 0 C7.42183831 5.02030039 12.43469229 11.36507746 15 20 C16.32567451 28.82107588 16.24321266 38.4599117 11 46 C9.42198444 47.91320264 7.8257588 49.73640643 6.07421875 51.4921875 C5.71972656 51.98976562 5.36523438 52.48734375 5 53 C5.33 53.99 5.66 54.98 6 56 C5.27734375 58.6640625 5.27734375 58.6640625 3 61 C-0.8178691 61.67940409 -4.5736446 61.51206643 -8.4375 61.375 C-9.48744141 61.36082031 -10.53738281 61.34664063 -11.61914062 61.33203125 C-15.9838435 61.24857613 -19.74341299 61.06414675 -24 60 C-24.33 55.38 -24.66 50.76 -25 46 C-28.12761961 45.84448047 -28.12761961 45.84448047 -31.4375 47.125 C-35 48 -35 48 -37.171875 47.33203125 C-39 46 -39 46 -39.64453125 43.94140625 C-39.69996094 43.15636719 -39.75539063 42.37132812 -39.8125 41.5625 C-39.88082031 40.78003906 -39.94914062 39.99757812 -40.01953125 39.19140625 C-40 37 -40 37 -39 34 C-39.897738 31.75712775 -39.897738 31.75712775 -42.5 30.5 C-45 29 -45 29 -46 27 C-46.60162414 35.12192587 -44.62101287 42.22616731 -39.25 48.5 C-38.5075 49.325 -37.765 50.15 -37 51 C-37 51.66 -37 52.32 -37 53 C-36.21753906 52.98839844 -35.43507813 52.97679687 -34.62890625 52.96484375 C-33.61699219 52.95582031 -32.60507812 52.94679687 -31.5625 52.9375 C-30.55316406 52.92589844 -29.54382813 52.91429687 -28.50390625 52.90234375 C-26 53 -26 53 -25 54 C-25 55.98 -25 57.96 -25 60 C-29.62 60 -34.24 60 -39 60 C-39.061875 58.80375 -39.12375 57.6075 -39.1875 56.375 C-39.6685309 52.45116225 -40.97135371 50.53620145 -43.65625 47.5859375 C-49.37993475 40.8306584 -49.89823925 32.76323437 -49.50390625 24.234375 C-48.74911183 15.79732456 -44.75335705 9.31142024 -38.75 3.5 C-27.58494568 -5.41718149 -12.60195979 -7.50573578 0 0 Z M-31 1 C-30.01 2.32 -29.02 3.64 -28 5 C-26.68 4.67 -25.36 4.34 -24 4 C-23.67 2.35 -23.34 0.7 -23 -1 C-26.20395416 -1 -28.09399739 -0.25664978 -31 1 Z M-11 -1 C-10.34 0.98 -9.68 2.96 -9 5 C-5.27385847 3.88145414 -5.27385847 3.88145414 -3 1 C-5.90600261 -0.25664978 -7.79604584 -1 -11 -1 Z M-26 7 C-26 8.32 -26 9.64 -26 11 C-24.68 10.34 -23.36 9.68 -22 9 C-23.32 8.34 -24.64 7.68 -26 7 Z M-11 7 C-11.99 8.485 -11.99 8.485 -13 10 C-10.525 10.99 -10.525 10.99 -8 12 C-8.33 10.35 -8.66 8.7 -9 7 C-9.66 7 -10.32 7 -11 7 Z M-41 9 C-41.86627399 10.59766103 -42.71766465 12.20339944 -43.5625 13.8125 C-44.03816406 14.70582031 -44.51382813 15.59914063 -45.00390625 16.51953125 C-46.33728333 19.06644576 -46.33728333 19.06644576 -45 22 C-44.38125 21.0409375 -44.38125 21.0409375 -43.75 20.0625 C-41.82189513 17.79009069 -40.88575819 17.39803561 -38 17 C-38 16.01 -38 15.02 -38 14 C-38.66 14 -39.32 14 -40 14 C-40 12.35 -40 10.7 -40 9 C-40.33 9 -40.66 9 -41 9 Z M6 9 C4.23537317 12.08809695 4 13.23312136 4 17 C5.2065625 17.433125 5.2065625 17.433125 6.4375 17.875 C9 19 9 19 10 21 C10.3125 24.4375 10.3125 24.4375 10 28 C8.0872632 29.9127368 6.396152 30.801924 4 32 C4.11859375 32.66386719 4.2371875 33.32773437 4.359375 34.01171875 C5.41034634 41.21087242 5.41034634 41.21087242 3.375 45.125 C1 47 1 47 -1.625 47.375 C-4 47 -4 47 -6 46 C-6 48.31 -6 50.62 -6 53 C-2.91265763 54.54367118 -1.44376769 54.64976749 2 54 C8.30797572 48.22336565 12.36971536 40.27619723 13.37890625 31.828125 C13.65876459 24.1365345 12.80202333 16.11961478 7.36328125 10.2265625 C6.91339844 9.82179688 6.46351562 9.41703125 6 9 Z M-24.1875 14 C-24.785625 14.66 -25.38375 15.32 -26 16 C-23.36 16 -20.72 16 -18 16 C-18.33 14.68 -18.66 13.36 -19 12 C-22.12498166 11.6626154 -22.12498166 11.6626154 -24.1875 14 Z M-15 12 C-15 13.32 -15 14.64 -15 16 C-12.69 16 -10.38 16 -8 16 C-10.17424117 13.49962266 -11.73045798 12.56371414 -15 12 Z M0 14 C-1.65 14.33 -3.3 14.66 -5 15 C-4.01 16.65 -3.02 18.3 -2 20 C-0.68 19.01 0.64 18.02 2 17 C1.34 16.01 0.68 15.02 0 14 Z M-36 16 C-36 16.66 -36 17.32 -36 18 C-34.0399719 19.63676257 -34.0399719 19.63676257 -32 21 C-31.67 19.35 -31.34 17.7 -31 16 C-32.65 16 -34.3 16 -36 16 Z M-27 16 C-30.44111477 19.79046653 -30.44131882 22.61021218 -30.296875 27.54296875 C-29.90044012 30.82398902 -28.64389168 33.15480287 -27 36 C-26.22222055 38.31448309 -25.61498599 40.63466926 -25 43 C-24.67 43 -24.34 43 -24 43 C-23.690625 41.741875 -23.38125 40.48375 -23.0625 39.1875 C-22.46021952 36.73822606 -21.79911359 34.39734077 -21 32 C-22.32 31.67 -23.64 31.34 -25 31 C-25.36116046 29.5225254 -25.71375048 28.04295325 -26.0625 26.5625 C-26.25972656 25.73878906 -26.45695312 24.91507813 -26.66015625 24.06640625 C-26.77230469 23.38449219 -26.88445313 22.70257812 -27 22 C-26.67 21.67 -26.34 21.34 -26 21 C-25.95936168 19.33382885 -25.957279 17.66611905 -26 16 C-26.33 16 -26.66 16 -27 16 Z M-8 16 C-8 17.65 -8 19.3 -8 21 C-7.34 21 -6.68 21 -6 21 C-6.66753574 24.52840318 -7.38285322 27.76570644 -9 31 C-10.7015625 31.2165625 -10.7015625 31.2165625 -12.4375 31.4375 C-14.2009375 31.7159375 -14.2009375 31.7159375 -16 32 C-16.66 32.99 -17.32 33.98 -18 35 C-16.02 35.33 -14.04 35.66 -12 36 C-11.67 38.31 -11.34 40.62 -11 43 C-10.01 42.67 -9.02 42.34 -8 42 C-7.896875 40.824375 -7.79375 39.64875 -7.6875 38.4375 C-7.31507526 35.27466896 -6.76100797 33.48524793 -5.375 30.5 C-3.58442525 25.94217337 -3.89417323 23.73925759 -5 19 C-6.39493544 17.01157259 -6.39493544 17.01157259 -8 16 Z M-2 28 C-2.33 29.65 -2.66 31.3 -3 33 C-1.35 33 0.3 33 2 33 C2 32.34 2 31.68 2 31 C0.0399719 29.36323743 0.0399719 29.36323743 -2 28 Z M-35.5625 30.5 C-36.036875 30.995 -36.51125 31.49 -37 32 C-35.93354885 33.29633621 -35.93354885 33.29633621 -33.4375 33.0625 C-32.633125 33.041875 -31.82875 33.02125 -31 33 C-31.66 31.68 -32.32 30.36 -33 29 C-34.24076302 28.88457803 -34.24076302 28.88457803 -35.5625 30.5 Z " fill="#44C8EC" transform="translate(49,4)"/>
<path d="M0 0 C7.42183831 5.02030039 12.43469229 11.36507746 15 20 C16.32686602 28.82900426 16.23525841 38.44853635 11 46 C9.45622587 47.9127738 7.88856641 49.73300373 6.171875 51.4921875 C4.69317133 53.07651007 4.69317133 53.07651007 5 56 C3.35 55.67 1.7 55.34 0 55 C0.66 54.67 1.32 54.34 2 54 C2.28875 53.4225 2.5775 52.845 2.875 52.25 C4 50 4 50 5.875 47.875 C11.72908205 39.95477135 13.17010583 31.70710247 12 22 C11.09110764 18.37974895 9.7732474 15.27714077 8 12 C7.63390625 11.2678125 7.2678125 10.535625 6.890625 9.78125 C2.65920833 2.7811286 -4.46874752 1.008334 -12 -1 C-12.66 -1 -13.32 -1 -14 -1 C-13.505 -0.01 -13.505 -0.01 -13 1 C-12.93049459 2.54023996 -12.91547643 4.08334988 -12.9375 5.625 C-12.94652344 6.44226562 -12.95554688 7.25953125 -12.96484375 8.1015625 C-12.97644531 8.72804688 -12.98804688 9.35453125 -13 10 C-12.195625 10.309375 -11.39125 10.61875 -10.5625 10.9375 C-8 12 -8 12 -7 13 C-6.01 10.03 -5.02 7.06 -4 4 C-2.35 4 -0.7 4 1 4 C1.495 5.98 1.495 5.98 2 8 C0.35 8 -1.3 8 -3 8 C-3 9.11375 -3 10.2275 -3 11.375 C-3 13.25 -3 15.125 -3 17 C-2.505 17.99 -2.505 17.99 -2 19 C-0.95150309 29.00565623 -0.95150309 29.00565623 -3.1171875 33.125 C-4.5 34.75 -4.5 34.75 -7 37 C-8 34 -8 34 -6.5 30.8125 C-4.628844 26.71501488 -4.5059143 23.2675382 -6 19 C-8.60488433 15.86078043 -10.79630908 13.30851673 -14.953125 12.7265625 C-19.24672199 12.53670957 -22.09582964 12.5657332 -25.5 15.375 C-29.36931671 19.43778254 -29.26582283 22.02056157 -29.234375 27.4453125 C-28.92838292 30.78062613 -27.77617832 33.18771767 -26 36 C-29.88548776 34.41702351 -32.36670284 32.25697281 -35 29 C-35.96940931 26.03708743 -36.55018337 23.08157957 -37 20 C-38.32 20 -39.64 20 -41 20 C-39.55802132 21.44197868 -37.82308429 22.11786244 -36 23 C-36.66 24.98 -37.32 26.96 -38 29 C-38.66 29 -39.32 29 -40 29 C-40.495 27.515 -40.495 27.515 -41 26 C-41.66 25.67 -42.32 25.34 -43 25 C-43 26.32 -43 27.64 -43 29 C-43.66 29 -44.32 29 -45 29 C-45.33 28.34 -45.66 27.68 -46 27 C-46.60162414 35.12192587 -44.62101287 42.22616731 -39.25 48.5 C-38.5075 49.325 -37.765 50.15 -37 51 C-37 51.66 -37 52.32 -37 53 C-36.21753906 52.98839844 -35.43507813 52.97679687 -34.62890625 52.96484375 C-33.61699219 52.95582031 -32.60507812 52.94679687 -31.5625 52.9375 C-30.55316406 52.92589844 -29.54382813 52.91429687 -28.50390625 52.90234375 C-26 53 -26 53 -25 54 C-25 55.98 -25 57.96 -25 60 C-29.62 60 -34.24 60 -39 60 C-39.061875 58.80375 -39.12375 57.6075 -39.1875 56.375 C-39.6685309 52.45116225 -40.97135371 50.53620145 -43.65625 47.5859375 C-49.37993475 40.8306584 -49.89823925 32.76323437 -49.50390625 24.234375 C-48.74911183 15.79732456 -44.75335705 9.31142024 -38.75 3.5 C-27.58494568 -5.41718149 -12.60195979 -7.50573578 0 0 Z M-31 1 C-30.01 2.32 -29.02 3.64 -28 5 C-26.68 4.67 -25.36 4.34 -24 4 C-23.67 2.35 -23.34 0.7 -23 -1 C-26.20395416 -1 -28.09399739 -0.25664978 -31 1 Z M-26 7 C-26 8.32 -26 9.64 -26 11 C-24.68 10.34 -23.36 9.68 -22 9 C-23.32 8.34 -24.64 7.68 -26 7 Z M-41 9 C-41.86627399 10.59766103 -42.71766465 12.20339944 -43.5625 13.8125 C-44.03816406 14.70582031 -44.51382813 15.59914063 -45.00390625 16.51953125 C-46.33728333 19.06644576 -46.33728333 19.06644576 -45 22 C-44.38125 21.0409375 -44.38125 21.0409375 -43.75 20.0625 C-41.82189513 17.79009069 -40.88575819 17.39803561 -38 17 C-38 16.01 -38 15.02 -38 14 C-38.66 14 -39.32 14 -40 14 C-40 12.35 -40 10.7 -40 9 C-40.33 9 -40.66 9 -41 9 Z M-36 16 C-36 16.66 -36 17.32 -36 18 C-34.0399719 19.63676257 -34.0399719 19.63676257 -32 21 C-31.67 19.35 -31.34 17.7 -31 16 C-32.65 16 -34.3 16 -36 16 Z " fill="#40C2E7" transform="translate(49,4)"/>
<path d="M0 0 C1.32 0 2.64 0 4 0 C4 1.32 4 2.64 4 4 C6.31 4 8.62 4 11 4 C12.80306232 7.83150744 13.35989587 10.77122353 13 15 C12.18507463 17.01014923 11.52839761 18.47160239 10 20 C7.66666667 20.33333333 5.33333333 20.66666667 3 21 C2.67 21.33 2.34 21.66 2 22 C3.98 22.66 5.96 23.32 8 24 C8 26.31 8 28.62 8 31 C7.34 31 6.68 31 6 31 C6 30.34 6 29.68 6 29 C5.34 29 4.68 29 4 29 C3.67 29.66 3.34 30.32 3 31 C3 30.01 3 29.02 3 28 C3.99 28 4.98 28 6 28 C6 27.34 6 26.68 6 26 C3.36 26 0.72 26 -2 26 C-1.67 30.29 -1.34 34.58 -1 39 C0.98 39 2.96 39 5 39 C5.33 39.99 5.66 40.98 6 42 C6.66 42.33 7.32 42.66 8 43 C3.97007218 42.44687265 -0.02022924 41.8441938 -4 41 C-4.33 41.66 -4.66 42.32 -5 43 C-5.33 40.03 -5.66 37.06 -6 34 C-9.12761961 33.84448047 -9.12761961 33.84448047 -12.4375 35.125 C-16 36 -16 36 -18.171875 35.33203125 C-20 34 -20 34 -20.64453125 31.94140625 C-20.69996094 31.15636719 -20.75539063 30.37132813 -20.8125 29.5625 C-20.88082031 28.78003906 -20.94914062 27.99757813 -21.01953125 27.19140625 C-21 25 -21 25 -20 22 C-21.25541557 19.48916886 -22.50063488 19.12874554 -25 18 C-24.67 16.35 -24.34 14.7 -24 13 C-23.01 13.33 -22.02 13.66 -21 14 C-21 14.99 -21 15.98 -21 17 C-20.34 17 -19.68 17 -19 17 C-18.7834375 16.071875 -18.7834375 16.071875 -18.5625 15.125 C-18 13 -18 13 -17 11 C-20.04913228 9.98888907 -20.04913228 9.98888907 -23 11 C-22.67 9.68 -22.34 8.36 -22 7 C-20.35 7.33 -18.7 7.66 -17 8 C-16.61102839 9.62171239 -16.23921702 11.24754925 -15.875 12.875 C-15.66617187 13.77992187 -15.45734375 14.68484375 -15.2421875 15.6171875 C-15.16226562 16.40351562 -15.08234375 17.18984375 -15 18 C-15.66 18.66 -16.32 19.32 -17 20 C-15.906875 20.268125 -14.81375 20.53625 -13.6875 20.8125 C-8.72661871 22.41007194 -8.72661871 22.41007194 -7 25 C-6.3125 27.6875 -6.3125 27.6875 -6 30 C-5.566875 28.3603125 -5.566875 28.3603125 -5.125 26.6875 C-4 23 -4 23 -2 20 C-3.65 19.67 -5.3 19.34 -7 19 C-8.62077189 13.38963576 -9.55579195 9.53754923 -7 4 C-3.535 3.505 -3.535 3.505 0 3 C0 2.01 0 1.02 0 0 Z " fill="#36AAD2" transform="translate(30,16)"/>
<path d="M0 0 C1.32 0 2.64 0 4 0 C4 1.32 4 2.64 4 4 C6.31 4 8.62 4 11 4 C12.80306232 7.83150744 13.35989587 10.77122353 13 15 C12.18507463 17.01014923 11.52839761 18.47160239 10 20 C8.88625 20.12375 7.7725 20.2475 6.625 20.375 C3.09792496 20.98311639 2.05637612 21.21784407 0 24 C-0.99 23.67 -1.98 23.34 -3 23 C-2.67 22.01 -2.34 21.02 -2 20 C-3.65 19.67 -5.3 19.34 -7 19 C-8.62077189 13.38963576 -9.55579195 9.53754923 -7 4 C-3.535 3.505 -3.535 3.505 0 3 C0 2.01 0 1.02 0 0 Z " fill="#1FC5F7" transform="translate(30,16)"/>
<path d="M0 0 C1.32 0.33 2.64 0.66 4 1 C5.25 3.5625 5.25 3.5625 6 6 C6.70125 5.649375 7.4025 5.29875 8.125 4.9375 C11.64466198 3.78978414 13.47831385 3.87605761 17 5 C19.5 7 19.5 7 21 10 C20.72712789 13.13278177 19.96309525 16.01310323 19 19 C19.78375 19.103125 20.5675 19.20625 21.375 19.3125 C24 20 24 20 26 23 C26.07905064 25.33199388 26.08798769 27.66832622 26 30 C25.01 30.33 24.02 30.66 23 31 C22.34 30.67 21.68 30.34 21 30 C21 28.35 21 26.7 21 25 C19.68 25 18.36 25 17 25 C17.33 26.65 17.66 28.3 18 30 C16.0625 30.5625 16.0625 30.5625 14 31 C13 30 13 30 12.75 26.125 C12.7774427 22.29674306 12.7774427 22.29674306 14.5 20 C14.995 19.67 15.49 19.34 16 19 C15.67 18.34 15.34 17.68 15 17 C14.01 17 13.02 17 12 17 C11.67 14.69 11.34 12.38 11 10 C12.65 9.67 14.3 9.34 16 9 C16 8.34 16 7.68 16 7 C14.35 7 12.7 7 11 7 C10.34 9.97 9.68 12.94 9 16 C8.34 15.67 7.68 15.34 7 15 C6.375 12.4375 6.375 12.4375 6 10 C4.68 10.33 3.36 10.66 2 11 C1.34 7.37 0.68 3.74 0 0 Z " fill="#36A3C9" transform="translate(34,2)"/>
<path d="M0 0 C1.98 0.66 3.96 1.32 6 2 C6.33 4.31 6.66 6.62 7 9 C8.65 9 10.3 9 12 9 C12 9.66 12 10.32 12 11 C13.65 11 15.3 11 17 11 C16.67 12.65 16.34 14.3 16 16 C11.15945762 17.25237852 6.39916861 17.14767328 1.4375 17.125 C0.58736328 17.12886719 -0.26277344 17.13273437 -1.13867188 17.13671875 C-1.96044922 17.13542969 -2.78222656 17.13414063 -3.62890625 17.1328125 C-4.37213135 17.13168457 -5.11535645 17.13055664 -5.88110352 17.12939453 C-8.03272621 16.99800151 -9.93079354 16.58919579 -12 16 C-11.67 13.69 -11.34 11.38 -11 9 C-7.7 9.33 -4.4 9.66 -1 10 C-1.33 8.02 -1.66 6.04 -2 4 C-1.34 4 -0.68 4 0 4 C0 2.68 0 1.36 0 0 Z " fill="#677278" transform="translate(37,48)"/>
<path d="M0 0 C1.65 0.33 3.3 0.66 5 1 C5.66 3.31 6.32 5.62 7 8 C8.051875 7.484375 9.10375 6.96875 10.1875 6.4375 C13.59182498 4.98435126 15.39663604 4.91899081 19 6 C20.216875 6.144375 21.43375 6.28875 22.6875 6.4375 C26 7 26 7 28 9 C28.99 6.03 29.98 3.06 31 0 C32.65 0 34.3 0 36 0 C36.495 1.98 36.495 1.98 37 4 C35.35 4 33.7 4 32 4 C32 5.11375 32 6.2275 32 7.375 C32 9.25 32 11.125 32 13 C32.495 13.99 32.495 13.99 33 15 C34.04849691 25.00565623 34.04849691 25.00565623 31.8828125 29.125 C30.5 30.75 30.5 30.75 28 33 C27 30 27 30 28.5 26.8125 C30.371156 22.71501488 30.4940857 19.2675382 29 15 C26.39511567 11.86078043 24.20369092 9.30851673 20.046875 8.7265625 C15.75327801 8.53670957 12.90417036 8.5657332 9.5 11.375 C5.63068329 15.43778254 5.73417717 18.02056157 5.765625 23.4453125 C6.07161708 26.78062613 7.22382168 29.18771767 9 32 C5.60751251 30.59621207 3.86753864 29.17373618 2 26 C1.85546875 23.125 1.85546875 23.125 2.1875 20 C2.28417969 18.96875 2.38085938 17.9375 2.48046875 16.875 C2.96420955 14.19805844 3.63786509 12.33188528 5 10 C4.34 10 3.68 10 3 10 C3.33 8.02 3.66 6.04 4 4 C2.35 3.67 0.7 3.34 -1 3 C-0.67 2.01 -0.34 1.02 0 0 Z " fill="#0C2E51" transform="translate(14,8)"/>
<path d="M0 0 C0.66 0.33 1.32 0.66 2 1 C1.278125 1.78375 0.55625 2.5675 -0.1875 3.375 C-7.58995886 12.21155345 -9.92731534 21.69190459 -9 33 C-7.37146728 39.49642945 -4.42594836 44.0822796 0 49 C0 49.66 0 50.32 0 51 C0.78246094 50.98839844 1.56492187 50.97679687 2.37109375 50.96484375 C3.38300781 50.95582031 4.39492188 50.94679687 5.4375 50.9375 C6.44683594 50.92589844 7.45617187 50.91429687 8.49609375 50.90234375 C11 51 11 51 12 52 C12 53.98 12 55.96 12 58 C7.38 58 2.76 58 -2 58 C-2.061875 56.80375 -2.12375 55.6075 -2.1875 54.375 C-2.6685309 50.45116225 -3.97135371 48.53620145 -6.65625 45.5859375 C-12.37855395 38.83228808 -12.89071943 30.76877019 -12.515625 22.2421875 C-11.70450772 13.11097332 -6.8187752 5.84466446 0 0 Z " fill="#020608" transform="translate(12,6)"/>
<path d="M0 0 C6.56674005 5.24465096 11.63085644 11.94188654 12.90673828 20.43164062 C13.75774486 29.94414523 13.17097176 38.70855054 6.99609375 46.359375 C5.95203683 47.55682416 4.8790894 48.73016504 3.76953125 49.8671875 C2.29082758 51.45151007 2.29082758 51.45151007 2.59765625 54.375 C0.94765625 54.045 -0.70234375 53.715 -2.40234375 53.375 C-1.74234375 53.045 -1.08234375 52.715 -0.40234375 52.375 C-0.11359375 51.7975 0.17515625 51.22 0.47265625 50.625 C1.59765625 48.375 1.59765625 48.375 3.47265625 46.25 C9.3267383 38.32977135 10.76776208 30.08210247 9.59765625 20.375 C8.68859439 16.75407383 7.36461144 13.65568431 5.59765625 10.375 C5.25476562 9.65441406 4.911875 8.93382812 4.55859375 8.19140625 C0.46874862 1.21228344 -7.12089317 -0.99876122 -14.52587891 -3.18334961 C-20.7188585 -4.64094785 -25.15929231 -2.755513 -30.81640625 -0.40234375 C-33.54854983 0.41895016 -34.77121609 0.35704061 -37.40234375 -0.625 C-25.37126968 -7.79737108 -11.85418444 -8.01844021 0 0 Z " fill="#03080B" transform="translate(51.40234375,5.625)"/>
<path d="M0 0 C1.81242052 -0.02687279 3.62495233 -0.04633715 5.4375 -0.0625 C6.44683594 -0.07410156 7.45617187 -0.08570313 8.49609375 -0.09765625 C11 0 11 0 12 1 C12.04092937 3.33297433 12.04241723 5.66705225 12 8 C11.34 8 10.68 8 10 8 C10 7.34 10 6.68 10 6 C9.34 6 8.68 6 8 6 C7.67 6.66 7.34 7.32 7 8 C7 7.01 7 6.02 7 5 C7.99 5 8.98 5 10 5 C10 4.34 10 3.68 10 3 C7.36 3 4.72 3 2 3 C2.33 7.29 2.66 11.58 3 16 C4.98 16 6.96 16 9 16 C9.33 16.99 9.66 17.98 10 19 C10.66 19.33 11.32 19.66 12 20 C7.97007218 19.44687265 3.97977076 18.8441938 0 18 C-0.33 18.66 -0.66 19.32 -1 20 C-1.07347656 19.04287109 -1.07347656 19.04287109 -1.1484375 18.06640625 C-1.22320313 17.24011719 -1.29796875 16.41382812 -1.375 15.5625 C-1.44460937 14.73878906 -1.51421875 13.91507813 -1.5859375 13.06640625 C-1.79089844 12.04353516 -1.79089844 12.04353516 -2 11 C-2.66 10.67 -3.32 10.34 -4 10 C-4 9.01 -4 8.02 -4 7 C-3.34 7 -2.68 7 -2 7 C-1.34 4.69 -0.68 2.38 0 0 Z " fill="#0A315C" transform="translate(26,39)"/>
<path d="M0 0 C0.66 0 1.32 0 2 0 C2.33 2.64 2.66 5.28 3 8 C4.175625 8.1546875 4.175625 8.1546875 5.375 8.3125 C8 9 8 9 10 12 C10.07905064 14.33199388 10.08798769 16.66832622 10 19 C9.01 19.33 8.02 19.66 7 20 C6.34 19.67 5.68 19.34 5 19 C5 17.35 5 15.7 5 14 C3.68 14 2.36 14 1 14 C1.33 15.65 1.66 17.3 2 19 C0.0625 19.5625 0.0625 19.5625 -2 20 C-3 19 -3 19 -3.25 15.125 C-3.22932713 11.23850021 -3.22932713 11.23850021 -1.4375 9.375 C-0.963125 8.92125 -0.48875 8.4675 0 8 C-0.32882152 4.94363898 -0.32882152 4.94363898 -1 2 C-0.67 1.34 -0.34 0.68 0 0 Z " fill="#3EBEE6" transform="translate(50,13)"/>
<path d="M0 0 C1.98 0 3.96 0 6 0 C6.8723412 2.99480917 7.10829766 5.63575911 7.0625 8.75 C7.05347656 9.54921875 7.04445313 10.3484375 7.03515625 11.171875 C7.02355469 11.77515625 7.01195312 12.3784375 7 13 C4.1875 13.6875 4.1875 13.6875 1 14 C-0.75 12.875 -0.75 12.875 -2 11 C-1.85546875 8.30078125 -1.85546875 8.30078125 -1.1875 5.3125 C-0.97480469 4.31863281 -0.76210938 3.32476562 -0.54296875 2.30078125 C-0.36378906 1.54152344 -0.18460938 0.78226562 0 0 Z " fill="#265272" transform="translate(29,1)"/>
<path d="M0 0 C2.14576637 -0.02685938 4.29162645 -0.04633088 6.4375 -0.0625 C7.63246094 -0.07410156 8.82742187 -0.08570313 10.05859375 -0.09765625 C13 0 13 0 14 1 C14 2.98 14 4.96 14 7 C9.38 7 4.76 7 0 7 C0 4.69 0 2.38 0 0 Z " fill="#7C8286" transform="translate(10,57)"/>
<path d="M0 0 C0.99 0.33 1.98 0.66 3 1 C2.34 3.97 1.68 6.94 1 10 C-2 10 -2 10 -4 9 C-4 10.65 -4 12.3 -4 14 C-4.99 14 -5.98 14 -7 14 C-7.66 11.69 -8.32 9.38 -9 7 C-10.65 7.33 -12.3 7.66 -14 8 C-14.66 10.31 -15.32 12.62 -16 15 C-16.66 14.67 -17.32 14.34 -18 14 C-18.3125 11.8125 -18.3125 11.8125 -18 9 C-15.67081404 6.00533233 -14.24744148 4.21297781 -10.4375 3.5625 C-7.94642809 4.00961547 -6.202779 4.78467366 -4 6 C-3.34 6 -2.68 6 -2 6 C-1.855625 5.195625 -1.71125 4.39125 -1.5625 3.5625 C-1 1 -1 1 0 0 Z " fill="#349FC5" transform="translate(27,2)"/>
<path d="M0 0 C1.98 0.66 3.96 1.32 6 2 C6.33 4.97 6.66 7.94 7 11 C8.32 10.67 9.64 10.34 11 10 C11 11.65 11 13.3 11 15 C8.69 15 6.38 15 4 15 C3.67 13.35 3.34 11.7 3 10 C1.68 10 0.36 10 -1 10 C-1.33 8.02 -1.66 6.04 -2 4 C-1.34 4 -0.68 4 0 4 C0 2.68 0 1.36 0 0 Z " fill="#F2D091" transform="translate(37,48)"/>
<path d="M0 0 C2.64 0 5.28 0 8 0 C8 0.66 8 1.32 8 2 C7.01 2 6.02 2 5 2 C4.87530901 7.57830016 4.87530901 7.57830016 6 13 C4.34385343 13.38218767 2.67542976 13.71395102 1 14 C0 13 0 13 -0.09765625 10.05859375 C-0.08605469 8.86363281 -0.07445313 7.66867188 -0.0625 6.4375 C-0.05347656 5.23996094 -0.04445313 4.04242188 -0.03515625 2.80859375 C-0.02355469 1.88175781 -0.01195313 0.95492187 0 0 Z " fill="#60B4D8" transform="translate(28,42)"/>
<path d="M0 0 C1.65 0.33 3.3 0.66 5 1 C7.43326039 10.01531729 7.43326039 10.01531729 5.625 14.125 C5.08875 14.74375 4.5525 15.3625 4 16 C3.5875 15.54625 3.175 15.0925 2.75 14.625 C0.93591905 12.94049626 -0.75285627 12.00734029 -3 11 C-2.67 9.35 -2.34 7.7 -2 6 C-1.01 6.33 -0.02 6.66 1 7 C1 7.99 1 8.98 1 10 C1.66 10 2.32 10 3 10 C3.144375 9.38125 3.28875 8.7625 3.4375 8.125 C4 6 4 6 5 4 C1.95086772 2.98888907 1.95086772 2.98888907 -1 4 C-0.67 2.68 -0.34 1.36 0 0 Z " fill="#214466" transform="translate(8,23)"/>
<path d="M0 0 C1.65 0 3.3 0 5 0 C6.125 1.75 6.125 1.75 7 4 C6.125 6.25 6.125 6.25 5 8 C5.66 8 6.32 8 7 8 C7 8.66 7 9.32 7 10 C1.25 11 1.25 11 -1 11 C-1 10.01 -1 9.02 -1 8 C-1.66 8 -2.32 8 -3 8 C-2.5359375 7.13375 -2.5359375 7.13375 -2.0625 6.25 C-1.07416636 4.15705816 -0.4831387 2.25464725 0 0 Z " fill="#226D96" transform="translate(12,10)"/>
<path d="M0 0 C2.4375 1.5625 2.4375 1.5625 4 4 C3.75 7.75 3.75 7.75 3 11 C2.01 11.33 1.02 11.66 0 12 C0 9.36 0 6.72 0 4 C-1.65 3.67 -3.3 3.34 -5 3 C-6.32 5.31 -7.64 7.62 -9 10 C-9.33 10 -9.66 10 -10 10 C-10.32152515 6.46322336 -10.4131192 4.6037896 -8.375 1.625 C-5.28813568 -0.48706506 -3.6717087 -0.61195145 0 0 Z " fill="#3BB1D8" transform="translate(19,37)"/>
<path d="M0 0 C0.33 0 0.66 0 1 0 C1.95261487 4.76307437 2.08333357 9.1666528 2 14 C4.64 14 7.28 14 10 14 C10.33 14.99 10.66 15.98 11 17 C11.66 17.33 12.32 17.66 13 18 C8.97007218 17.44687265 4.97977076 16.8441938 1 16 C0.67 16.66 0.34 17.32 0 18 C-0.07347656 17.04287109 -0.07347656 17.04287109 -0.1484375 16.06640625 C-0.22320313 15.24011719 -0.29796875 14.41382813 -0.375 13.5625 C-0.44460937 12.73878906 -0.51421875 11.91507813 -0.5859375 11.06640625 C-0.79089844 10.04353516 -0.79089844 10.04353516 -1 9 C-1.66 8.67 -2.32 8.34 -3 8 C-3 7.01 -3 6.02 -3 5 C-2.34 5 -1.68 5 -1 5 C-0.67 3.35 -0.34 1.7 0 0 Z " fill="#0E2A49" transform="translate(25,41)"/>
<path d="M0 0 C1.67542976 0.28604898 3.34385343 0.61781233 5 1 C4.67 2.65 4.34 4.3 4 6 C4.99 6.33 5.98 6.66 7 7 C6.01 8.485 6.01 8.485 5 10 C2.69 9.67 0.38 9.34 -2 9 C-2 8.01 -2 7.02 -2 6 C-1.01 6 -0.02 6 1 6 C0.34 4.35 -0.32 2.7 -1 1 C-0.67 0.67 -0.34 0.34 0 0 Z " fill="#D9C692" transform="translate(51,26)"/>
<path d="M0 0 C0.66 0.33 1.32 0.66 2 1 C1.278125 1.78375 0.55625 2.5675 -0.1875 3.375 C-4.24110531 8.21391916 -7.01152435 14.03457304 -9 20 C-9.99 20.33 -10.98 20.66 -12 21 C-11.61569952 13.69829081 -7.19977693 6.96427629 -2.125 1.875 C-1.42375 1.25625 -0.7225 0.6375 0 0 Z " fill="#071016" transform="translate(12,6)"/>
<path d="M0 0 C0.99 0.33 1.98 0.66 3 1 C0.6410874 6.31084793 -1.7904239 9.90735657 -6 14 C-6 14.99 -6 15.98 -6 17 C-7.65 16.67 -9.3 16.34 -11 16 C-10.34 15.67 -9.68 15.34 -9 15 C-8.71125 14.4225 -8.4225 13.845 -8.125 13.25 C-7 11 -7 11 -5.0625 8.625 C-2.91075519 5.8864157 -1.46512401 3.15001662 0 0 Z " fill="#0A151C" transform="translate(60,43)"/>
<path d="M0 0 C0.99 0.33 1.98 0.66 3 1 C3.86140345 12.82994076 3.86140345 12.82994076 0.5 16.75 C-0.325 17.4925 -1.15 18.235 -2 19 C-3.22739588 15.31781237 -2.28037626 14.39885551 -0.703125 11.05078125 C0.53584924 7.43710638 0.23083454 3.77029747 0 0 Z " fill="#0F3357" transform="translate(44,22)"/>
<path d="M0 0 C0.66 0 1.32 0 2 0 C2 0.66 2 1.32 2 2 C3.65 1.67 5.3 1.34 7 1 C7 1.99 7 2.98 7 4 C5.68 3.67 4.36 3.34 3 3 C3 4.32 3 5.64 3 7 C2.34 7 1.68 7 1 7 C0.67 7.99 0.34 8.98 0 10 C-1.4606285 7.35261084 -2 6.10551666 -2 3 C-1.34 3 -0.68 3 0 3 C0 2.01 0 1.02 0 0 Z " fill="#757B73" transform="translate(34,45)"/>
<path d="M0 0 C0.99 0.33 1.98 0.66 3 1 C3.625 3.8125 3.625 3.8125 4 7 C2 10 2 10 -0.125 10.6875 C-0.74375 10.790625 -1.3625 10.89375 -2 11 C-1.855625 10.29875 -1.71125 9.5975 -1.5625 8.875 C-0.98521625 5.92443859 -0.48304859 2.96729849 0 0 Z " fill="#44CCF4" transform="translate(51,39)"/>
<path d="M0 0 C1.32 0 2.64 0 4 0 C5.0326802 2.78823655 5.04509293 3.8677274 4.0625 6.75 C3.711875 7.4925 3.36125 8.235 3 9 C2.01 9 1.02 9 0 9 C0 7.35 0 5.7 0 4 C-0.66 4 -1.32 4 -2 4 C-1.34 2.68 -0.68 1.36 0 0 Z " fill="#C9C297" transform="translate(46,41)"/>
<path d="M0 0 C2.4375 1.1875 2.4375 1.1875 3.4375 3.1875 C3.66826923 8.72596154 3.66826923 8.72596154 2.4375 11.1875 C1.7775 11.1875 1.1175 11.1875 0.4375 11.1875 C0.32792969 10.56101562 0.21835938 9.93453125 0.10546875 9.2890625 C-0.13236328 8.06316406 -0.13236328 8.06316406 -0.375 6.8125 C-0.60123047 5.59433594 -0.60123047 5.59433594 -0.83203125 4.3515625 C-1.43794942 1.82929359 -1.43794942 1.82929359 -4.5625 0.1875 C-2.5625 -0.8125 -2.5625 -0.8125 0 0 Z " fill="#3AADD3" transform="translate(13.5625,21.8125)"/>
<path d="M0 0 C1.32 0.66 2.64 1.32 4 2 C3.34 3.98 2.68 5.96 2 8 C2.66 8.33 3.32 8.66 4 9 C1.625 9.625 1.625 9.625 -1 10 C-1.66 9.34 -2.32 8.68 -3 8 C-2.34 7.67 -1.68 7.34 -1 7 C-1.309375 5.824375 -1.309375 5.824375 -1.625 4.625 C-1.74875 3.75875 -1.8725 2.8925 -2 2 C-1.34 1.34 -0.68 0.68 0 0 Z " fill="#D8BF8B" transform="translate(31,5)"/>
<path d="M0 0 C1.65 0 3.3 0 5 0 C5.125 2.875 5.125 2.875 5 6 C4.34 6.66 3.68 7.32 3 8 C0.875 7.625 0.875 7.625 -1 7 C-0.67 4.69 -0.34 2.38 0 0 Z " fill="#BBBEBF" transform="translate(26,57)"/>
<path d="M0 0 C0.99 0.33 1.98 0.66 3 1 C3 1.99 3 2.98 3 4 C4.32 4.33 5.64 4.66 7 5 C6.67 6.65 6.34 8.3 6 10 C5.5875 9.54625 5.175 9.0925 4.75 8.625 C2.93591905 6.94049626 1.24714373 6.00734029 -1 5 C-0.67 3.35 -0.34 1.7 0 0 Z " fill="#11375D" transform="translate(6,29)"/>
<path d="M0 0 C4.55555556 0.55555556 4.55555556 0.55555556 6 2 C6.04080783 3.99958364 6.04254356 6.00045254 6 8 C5.01 7.67 4.02 7.34 3 7 C3 5.68 3 4.36 3 3 C2.01 3.33 1.02 3.66 0 4 C0 5.32 0 6.64 0 8 C-0.66 8 -1.32 8 -2 8 C-2.125 5.125 -2.125 5.125 -2 2 C-1.34 1.34 -0.68 0.68 0 0 Z " fill="#1D466B" transform="translate(14,39)"/>
<path d="M0 0 C1.2065625 0.0309375 1.2065625 0.0309375 2.4375 0.0625 C2.7675 1.3825 3.0975 2.7025 3.4375 4.0625 C1.7875 4.0625 0.1375 4.0625 -1.5625 4.0625 C-1.5625 5.7125 -1.5625 7.3625 -1.5625 9.0625 C-2.5525 9.3925 -3.5425 9.7225 -4.5625 10.0625 C-4.42200482 8.58281676 -4.27495174 7.10375484 -4.125 5.625 C-4.04378906 4.80128906 -3.96257813 3.97757813 -3.87890625 3.12890625 C-3.4093501 0.06229881 -3.15462671 0.07694211 0 0 Z " fill="#1D466B" transform="translate(47.5625,7.9375)"/>
<path d="M0 0 C0.66 0 1.32 0 2 0 C2.33 0.66 2.66 1.32 3 2 C4.32 1.67 5.64 1.34 7 1 C7 2.65 7 4.3 7 6 C4.69 6 2.38 6 0 6 C0 4.02 0 2.04 0 0 Z " fill="#CBCACA" transform="translate(41,57)"/>
<path d="M0 0 C0.99 0.33 1.98 0.66 3 1 C3 3.31 3 5.62 3 8 C2.01 8.33 1.02 8.66 0 9 C-0.66 8.67 -1.32 8.34 -2 8 C-1.47731534 5.23723823 -0.89130413 2.6739124 0 0 Z " fill="#49CDF2" transform="translate(57,24)"/>
<path d="M0 0 C5.63228453 0.13410201 9.51164037 2.91282878 14 6 C13.67 6.66 13.34 7.32 13 8 C12.50371094 7.73445312 12.00742187 7.46890625 11.49609375 7.1953125 C7.05021478 4.88379288 2.86099676 3.21524919 -2 2 C-1.34 1.34 -0.68 0.68 0 0 Z " fill="#09151D" transform="translate(39,1)"/>
<path d="M0 0 C1.65 0.33 3.3 0.66 5 1 C5.66 3.97 6.32 6.94 7 10 C6.01 10.495 6.01 10.495 5 11 C4.34 10.67 3.68 10.34 3 10 C3.33 8.02 3.66 6.04 4 4 C2.35 3.67 0.7 3.34 -1 3 C-0.67 2.01 -0.34 1.02 0 0 Z " fill="#153F68" transform="translate(14,8)"/>
<path d="M0 0 C0.99 0.33 1.98 0.66 3 1 C2.34 3.97 1.68 6.94 1 10 C0.01 10 -0.98 10 -2 10 C-2.1953125 3.9453125 -2.1953125 3.9453125 -2 2 C-1.34 1.34 -0.68 0.68 0 0 Z " fill="#3FBEE5" transform="translate(27,2)"/>
<path d="M0 0 C0.99 0 1.98 0 3 0 C3.66 1.98 4.32 3.96 5 6 C3.34385343 6.38218767 1.67542976 6.71395102 0 7 C-1 6 -1 6 -1.125 3.5 C-1 1 -1 1 0 0 Z " fill="#B1A8A8" transform="translate(29,49)"/>
<path d="M0 0 C0.66 0 1.32 0 2 0 C2 1.32 2 2.64 2 4 C1.34 4 0.68 4 0 4 C-0.33 5.32 -0.66 6.64 -1 8 C-1 7.34 -1 6.68 -1 6 C-2.98 6.66 -4.96 7.32 -7 8 C-6.8125 6.125 -6.8125 6.125 -6 4 C-3.5 2.875 -3.5 2.875 -1 2 C-0.67 1.34 -0.34 0.68 0 0 Z " fill="#1A5179" transform="translate(51,35)"/>
<path d="M0 0 C1.67542976 0.28604898 3.34385343 0.61781233 5 1 C4.34 3.31 3.68 5.62 3 8 C2.01 8 1.02 8 0 8 C-0.38063221 5.6739143 -0.71269945 3.33944736 -1 1 C-0.67 0.67 -0.34 0.34 0 0 Z " fill="#D3BB88" transform="translate(46,11)"/>
<path d="M0 0 C0 1.98 0 3.96 0 6 C-1.98 6 -3.96 6 -6 6 C-6 4.35 -6 2.7 -6 1 C-3 0 -3 0 0 0 Z " fill="#CECECE" transform="translate(17,57)"/>
<path d="M0 0 C2.31 0 4.62 0 7 0 C7 1.32 7 2.64 7 4 C4.69 4 2.38 4 0 4 C0 2.68 0 1.36 0 0 Z " fill="#C4C4C4" transform="translate(33,59)"/>
<path d="M0 0 C1.32 0.66 2.64 1.32 4 2 C3.34 3.98 2.68 5.96 2 8 C1.34 8 0.68 8 0 8 C-0.66 6.02 -1.32 4.04 -2 2 C-1.34 1.34 -0.68 0.68 0 0 Z " fill="#D8C18A" transform="translate(15,10)"/>
<path d="M0 0 C1.32 0.33 2.64 0.66 4 1 C5.23076923 6.41538462 5.23076923 6.41538462 4.0625 9.375 C3.711875 9.91125 3.36125 10.4475 3 11 C2.67 11 2.34 11 2 11 C1.34 7.37 0.68 3.74 0 0 Z " fill="#41C6EF" transform="translate(34,2)"/>
<path d="M0 0 C0.99 0.66 1.98 1.32 3 2 C2.34 3.98 1.68 5.96 1 8 C0.34 8 -0.32 8 -1 8 C-1.66 6.02 -2.32 4.04 -3 2 C-2.01 1.34 -1.02 0.68 0 0 Z " fill="#DAC38B" transform="translate(16,41)"/>
<path d="M0 0 C2.64 0 5.28 0 8 0 C8.33 0.66 8.66 1.32 9 2 C8.34 2.66 7.68 3.32 7 4 C3.375 3.625 3.375 3.625 0 3 C0 2.01 0 1.02 0 0 Z " fill="#D28580" transform="translate(49,32)"/>
<path d="M0 0 C1.32 0.66 2.64 1.32 4 2 C3.34 3.98 2.68 5.96 2 8 C1.34 8 0.68 8 0 8 C-0.66 6.02 -1.32 4.04 -2 2 C-1.34 1.34 -0.68 0.68 0 0 Z " fill="#D3BC88" transform="translate(9,25)"/>
<path d="M0 0 C1.65 0 3.3 0 5 0 C4.67 1.65 4.34 3.3 4 5 C2.68 5.33 1.36 5.66 0 6 C0 4.02 0 2.04 0 0 Z " fill="#AAABAB" transform="translate(49,59)"/>
<path d="M0 0 C0.99 0.33 1.98 0.66 3 1 C2.67 3.31 2.34 5.62 2 8 C1.01 8.33 0.02 8.66 -1 9 C-0.67 6.03 -0.34 3.06 0 0 Z " fill="#43CCF3" transform="translate(20,40)"/>
<path d="M0 0 C0.66 0.33 1.32 0.66 2 1 C2 3.31 2 5.62 2 8 C1.34 8 0.68 8 0 8 C0 7.34 0 6.68 0 6 C-0.66 6 -1.32 6 -2 6 C-2.33 6.66 -2.66 7.32 -3 8 C-3 7.01 -3 6.02 -3 5 C-2.01 5 -1.02 5 0 5 C0 4.34 0 3.68 0 3 C-0.66 2.67 -1.32 2.34 -2 2 C-1.34 1.34 -0.68 0.68 0 0 Z " fill="#12355A" transform="translate(36,39)"/>
<path d="M0 0 C0.66 0 1.32 0 2 0 C2.33 2.64 2.66 5.28 3 8 C2.01 8 1.02 8 0 8 C-1.125 2.25 -1.125 2.25 0 0 Z " fill="#13385C" transform="translate(50,13)"/>
<path d="M0 0 C4 4.75 4 4.75 4 7 C2.0625 7.5625 2.0625 7.5625 0 8 C-0.33 7.67 -0.66 7.34 -1 7 C-0.71269945 4.66055264 -0.38063221 2.3260857 0 0 Z " fill="#48D2F7" transform="translate(48,25)"/>
<path d="M0 0 C1.65 0 3.3 0 5 0 C5.33 1.32 5.66 2.64 6 4 C3.69 4 1.38 4 -1 4 C-0.67 2.68 -0.34 1.36 0 0 Z " fill="#285171" transform="translate(51,23)"/>
<path d="M0 0 C0.66 0.33 1.32 0.66 2 1 C2 1.66 2 2.32 2 3 C-2.43076923 5.09230769 -2.43076923 5.09230769 -5.3125 4.625 C-5.869375 4.41875 -6.42625 4.2125 -7 4 C-1.7265625 0.77734375 -1.7265625 0.77734375 0 0 Z " fill="#081017" transform="translate(21,1)"/>
<path d="M0 0 C1.32 0 2.64 0 4 0 C4.33 1.98 4.66 3.96 5 6 C3.35 5.67 1.7 5.34 0 5 C0 3.35 0 1.7 0 0 Z " fill="#E0E0E1" transform="translate(18,58)"/>
<path d="M0 0 C0.66 0 1.32 0 2 0 C2 0.66 2 1.32 2 2 C3.32 2 4.64 2 6 2 C6.33 1.34 6.66 0.68 7 0 C7 0.99 7 1.98 7 3 C4.6875 3.6875 4.6875 3.6875 2 4 C0.1875 2.5625 0.1875 2.5625 -1 1 C-0.67 0.67 -0.34 0.34 0 0 Z " fill="#2DA1CB" transform="translate(44,48)"/>
<path d="M0 0 C0.66 0.33 1.32 0.66 2 1 C1.67 3.31 1.34 5.62 1 8 C0.34 7.67 -0.32 7.34 -1 7 C-1.625 3.9375 -1.625 3.9375 -2 1 C-1.34 0.67 -0.68 0.34 0 0 Z " fill="#3D566A" transform="translate(34,47)"/>
<path d="M0 0 C-0.99 1.485 -0.99 1.485 -2 3 C-4.625 3.1875 -4.625 3.1875 -7 3 C-7.33 2.34 -7.66 1.68 -8 1 C-5.29120665 -0.35439668 -2.99066732 -0.06501451 0 0 Z " fill="#0A294D" transform="translate(36,39)"/>
<path d="M0 0 C0.66 0.33 1.32 0.66 2 1 C1.34 3.31 0.68 5.62 0 8 C-0.66 7.67 -1.32 7.34 -2 7 C-2.125 4.625 -2.125 4.625 -2 2 C-1.34 1.34 -0.68 0.68 0 0 Z " fill="#3EBBE3" transform="translate(11,9)"/>
<path d="M0 0 C0.66 0 1.32 0 2 0 C2.6875 2.3125 2.6875 2.3125 3 5 C1.5625 6.8125 1.5625 6.8125 0 8 C0 5.36 0 2.72 0 0 Z " fill="#42C8EE" transform="translate(52,10)"/>
<path d="M0 0 C0.66 0 1.32 0 2 0 C1.74438677 2.3431213 1.40729228 4.67843403 1 7 C0.01 7.495 0.01 7.495 -1 8 C-1.125 2.25 -1.125 2.25 0 0 Z " fill="#44CFF5" transform="translate(10,39)"/>
<path d="" fill="#2E6574" transform="translate(0,0)"/>
</svg>
